<svg width="294" height="61" viewBox="0 0 294 61" fill="none" xmlns="http://www.w3.org/2000/svg">
<path d="M112.231 17.6894C114.637 19.736 115.844 22.8827 115.851 27.1294C115.857 31.376 114.621 34.4827 112.141 36.4494C109.661 38.4494 105.881 39.4327 100.801 39.3994H96.2208V48.9994H88.5508V14.6094H100.701C105.981 14.6094 109.824 15.636 112.231 17.6894ZM106.601 31.2094C107.611 29.928 108.11 28.3174 108.001 26.6894C108.001 24.6894 107.401 23.2794 106.201 22.4594C105.001 21.6394 103.134 21.2194 100.601 21.1994H96.2208V32.7594H101.391C104.001 32.7594 105.681 32.2494 106.601 31.2094Z" fill="#05ABC1"/>
<path d="M147.229 35.7588C147.266 37.5625 146.93 39.3543 146.242 41.0218C145.554 42.6893 144.528 44.1965 143.229 45.4489C140.512 47.9743 136.939 49.378 133.229 49.378C129.52 49.378 125.947 47.9743 123.229 45.4489C121.93 44.1972 120.904 42.6901 120.215 41.0225C119.527 39.3548 119.191 37.5626 119.229 35.7588C119.194 33.9525 119.531 32.1581 120.219 30.4876C120.907 28.817 121.932 27.3061 123.229 26.0488C125.94 23.5102 129.515 22.0977 133.229 22.0977C136.944 22.0977 140.519 23.5102 143.229 26.0488C144.526 27.3072 145.549 28.8183 146.238 30.4886C146.926 32.1589 147.263 33.9527 147.229 35.7588ZM126.669 35.7588C126.588 37.6938 127.25 39.5866 128.519 41.0488C129.125 41.693 129.857 42.2063 130.668 42.5572C131.48 42.908 132.355 43.089 133.239 43.089C134.124 43.089 134.999 42.908 135.811 42.5572C136.622 42.2063 137.354 41.693 137.959 41.0488C139.226 39.5851 139.884 37.6924 139.799 35.7588C139.89 33.8253 139.247 31.9288 137.999 30.4489C137.398 29.7968 136.668 29.2763 135.856 28.9204C135.044 28.5644 134.166 28.3806 133.279 28.3806C132.393 28.3806 131.515 28.5644 130.703 28.9204C129.89 29.2763 129.161 29.7968 128.559 30.4489C127.279 31.9154 126.604 33.8133 126.669 35.7588Z" fill="#05ABC1"/>
<path d="M172.372 40.7505C172.408 41.9441 172.167 43.1297 171.667 44.2142C171.167 45.2987 170.423 46.2525 169.492 47.0005C167.412 48.6274 164.821 49.4637 162.182 49.3605C160.08 49.3494 157.994 49.0017 156.002 48.3305C153.91 47.6463 151.958 46.5893 150.242 45.2105L153.492 40.5805C155.977 42.6157 159.081 43.7443 162.292 43.7805C163.086 43.8228 163.874 43.6241 164.552 43.2105C164.811 43.0562 165.026 42.8363 165.173 42.573C165.32 42.3097 165.396 42.0123 165.392 41.7105C165.359 41.3557 165.24 41.0142 165.045 40.7161C164.85 40.418 164.584 40.1723 164.272 40.0005C163.232 39.3582 162.108 38.8634 160.932 38.5305C159.472 38.0705 158.352 37.6705 157.592 37.3505C156.693 36.9377 155.827 36.4562 155.002 35.9105C154.048 35.3475 153.264 34.5355 152.736 33.5613C152.207 32.5872 151.954 31.4877 152.002 30.3805C151.984 29.213 152.247 28.0582 152.769 27.0138C153.291 25.9695 154.057 25.0662 155.002 24.3805C157.208 22.7635 159.9 21.9485 162.632 22.0705C165.993 22.1513 169.249 23.2497 171.972 25.2205L169.222 30.1405C167.233 28.6643 164.838 27.8368 162.362 27.7705C160.082 27.7705 158.942 28.4005 158.942 29.6405C158.947 29.9871 159.052 30.325 159.243 30.6139C159.435 30.9029 159.705 31.1308 160.022 31.2705C161.176 31.8313 162.378 32.2897 163.612 32.6405C165.282 33.1705 166.472 33.5705 167.182 33.8505C168.058 34.2168 168.904 34.6515 169.712 35.1505C171.486 36.2839 172.372 38.1505 172.372 40.7505Z" fill="#05ABC1"/>
<path d="M178.64 19.1619C178.23 18.764 177.907 18.2861 177.69 17.758C177.474 17.2298 177.368 16.6627 177.38 16.0919C177.374 15.5218 177.483 14.9563 177.699 14.4286C177.914 13.9008 178.233 13.4214 178.636 13.0182C179.039 12.6151 179.519 12.2963 180.046 12.0806C180.574 11.8649 181.14 11.7566 181.71 11.7619C182.277 11.7592 182.84 11.8696 183.364 12.0868C183.888 12.3039 184.364 12.6234 184.764 13.0266C185.163 13.4297 185.478 13.9084 185.69 14.4348C185.903 14.9611 186.008 15.5244 186 16.0919C185.998 16.9486 185.743 17.7856 185.267 18.4976C184.791 19.2096 184.114 19.7647 183.323 20.093C182.532 20.4212 181.661 20.508 180.82 20.3423C179.98 20.1766 179.207 19.7659 178.6 19.1619H178.64ZM185.4 49.0019H178V22.5319H185.38L185.4 49.0019Z" fill="#05ABC1"/>
<path d="M201.19 27.8394V39.6994C201.138 40.5648 201.42 41.4172 201.98 42.0794C202.209 42.3519 202.495 42.5704 202.819 42.7191C203.142 42.8677 203.494 42.943 203.85 42.9394C204.54 42.9335 205.218 42.7602 205.826 42.4345C206.434 42.1087 206.953 41.6403 207.34 41.0694L210.09 46.2394C208.168 48.1823 205.572 49.3104 202.84 49.3894C201.61 49.4298 200.385 49.2121 199.245 48.7503C198.104 48.2886 197.073 47.593 196.217 46.7083C195.362 45.8237 194.701 44.7696 194.278 43.6141C193.855 42.4586 193.678 41.2272 193.76 39.9994V27.8394H190.66V22.5294H193.76V14.6094H201.19V22.5294H207.58V27.8394H201.19Z" fill="#05ABC1"/>
<path d="M214.642 19.1588C214.234 18.7604 213.912 18.2822 213.697 17.754C213.482 17.2258 213.378 16.659 213.392 16.0888C213.364 15.5033 213.455 14.9183 213.659 14.369C213.864 13.8198 214.178 13.3178 214.582 12.8935C214.987 12.4692 215.473 12.1314 216.012 11.9006C216.551 11.6698 217.131 11.5508 217.717 11.5508C218.303 11.5508 218.883 11.6698 219.422 11.9006C219.96 12.1314 220.447 12.4692 220.851 12.8935C221.256 13.3178 221.57 13.8198 221.774 14.369C221.979 14.9183 222.07 15.5033 222.042 16.0888C222.04 16.9455 221.785 17.7825 221.309 18.4945C220.832 19.2065 220.156 19.7616 219.365 20.0899C218.574 20.4181 217.703 20.5049 216.862 20.3392C216.022 20.1735 215.249 19.7628 214.642 19.1588ZM221.402 48.9988H214.002V22.5288H221.372L221.402 48.9988Z" fill="#05ABC1"/>
<path d="M235.52 49.0005L225 22.4805H232.68L239.27 39.1605L245.86 22.4805H253.53L243.1 49.0005H235.52Z" fill="#05ABC1"/>
<path d="M279.353 49.0016H272.413V45.8016C271.604 46.916 270.542 47.8225 269.315 48.4466C268.088 49.0707 266.73 49.3946 265.353 49.3916C262.786 49.4861 260.274 48.6357 258.293 47.0016C257.357 46.2062 256.615 45.2087 256.121 44.0845C255.628 42.9602 255.396 41.7386 255.443 40.5116C255.37 39.3314 255.603 38.1523 256.12 37.0887C256.637 36.0252 257.42 35.1133 258.393 34.4416C260.393 33.1083 263.083 32.4416 266.463 32.4416H272.003V32.2916C272.003 29.4316 270.499 28.0016 267.493 28.0016C266.106 28.0198 264.732 28.2769 263.433 28.7616C262.137 29.2019 260.919 29.8431 259.823 30.6616L256.523 25.8916C259.977 23.371 264.157 22.0409 268.433 22.1016C271.255 21.9782 274.034 22.8291 276.303 24.5116C278.303 26.1183 279.319 28.6583 279.353 32.1316V49.0016ZM271.923 38.9216V37.6316H267.303C264.303 37.6316 262.873 38.5516 262.873 40.3916C262.85 40.8151 262.935 41.2373 263.121 41.6187C263.306 42 263.586 42.328 263.933 42.5716C264.828 43.1343 265.877 43.4035 266.933 43.3416C268.196 43.3598 269.425 42.9312 270.403 42.1316C270.893 41.7535 271.286 41.2645 271.551 40.7047C271.815 40.1449 271.942 39.5303 271.923 38.9116V38.9216Z" fill="#05ABC1"/>
<path d="M293.462 49H286.082V12.5H293.462V49Z" fill="#05ABC1"/>
<path d="M58.4809 35.0902C59.4374 36.0482 60.0887 37.2681 60.3524 38.5959C60.6161 39.9237 60.4804 41.2999 59.9626 42.5506C59.4447 43.8014 58.5679 44.8707 57.4427 45.6235C56.3176 46.3763 54.9947 46.7788 53.6409 46.7802C51.8242 46.7802 50.0819 47.5019 48.7972 48.7866C47.5126 50.0712 46.7909 51.8135 46.7909 53.6302C46.7895 54.984 46.3869 56.3069 45.6342 57.432C44.8814 58.5572 43.8121 59.434 42.5613 59.9519C41.3106 60.4697 39.9344 60.6054 38.6066 60.3417C37.2788 60.078 36.0589 59.4267 35.1009 58.4702C34.4663 57.8329 33.7121 57.3271 32.8815 56.982C32.0509 56.6369 31.1604 56.4593 30.2609 56.4593C29.3615 56.4593 28.4709 56.6369 27.6404 56.982C26.8098 57.3271 26.0555 57.8329 25.4209 58.4702C24.4635 59.4302 23.2427 60.0844 21.9132 60.3501C20.5837 60.6158 19.2053 60.4809 17.9525 59.9627C16.6996 59.4444 15.6288 58.566 14.8755 57.4388C14.1222 56.3115 13.7204 54.986 13.7209 53.6302C13.7209 51.8152 13.0006 50.0744 11.7181 48.7901C10.4357 47.5058 8.69593 46.7829 6.88093 46.7802C5.52379 46.7867 4.19531 46.3899 3.06404 45.6402C1.93278 44.8904 1.04972 43.8216 0.526897 42.5692C0.00407732 41.3167 -0.134933 39.9373 0.127502 38.6057C0.389938 37.2742 1.04199 36.0506 2.00093 35.0902C3.2833 33.8059 4.00357 32.0652 4.00357 30.2502C4.00357 28.4353 3.2833 26.6946 2.00093 25.4102C1.04099 24.4528 0.386762 23.232 0.121087 21.9025C-0.144588 20.573 -0.0097568 19.1946 0.508505 17.9418C1.02677 16.6889 1.90515 15.6181 3.03242 14.8648C4.15969 14.1115 5.48514 13.7097 6.84093 13.7102C8.65501 13.7102 10.3948 12.9896 11.6775 11.7069C12.9603 10.4241 13.6809 8.68432 13.6809 6.87024C13.6683 5.50569 14.0636 4.16847 14.816 3.03004C15.5685 1.89161 16.6438 1.00386 17.9041 0.480612C19.1644 -0.0426371 20.5522 -0.177534 21.8897 0.0932153C23.2272 0.363965 24.4534 1.02802 25.4109 2.00024C26.6953 3.28262 28.436 4.00288 30.2509 4.00288C32.0659 4.00288 33.8066 3.28262 35.0909 2.00024C36.0501 1.04253 37.2718 0.390902 38.6015 0.127839C39.9312 -0.135225 41.309 0.00210065 42.5606 0.522434C43.8121 1.04277 44.8812 1.92272 45.6325 3.05091C46.3838 4.1791 46.7834 5.50481 46.7809 6.86024C46.7836 8.67524 47.5064 10.415 48.7908 11.6975C50.0751 12.9799 51.8159 13.7002 53.6309 13.7002C54.9867 13.6997 56.3122 14.1015 57.4394 14.8548C58.5667 15.6081 59.4451 16.6789 59.9634 17.9318C60.4816 19.1846 60.6164 20.563 60.3508 21.8925C60.0851 23.222 59.4309 24.4428 58.4709 25.4002C57.8327 26.0357 57.3265 26.7911 56.9814 27.6229C56.6362 28.4548 56.459 29.3467 56.46 30.2473C56.4609 31.1479 56.6399 32.0395 56.9868 32.8706C57.3336 33.7018 57.8414 34.4561 58.4809 35.0902Z" fill="url(#paint0_linear_291_102)"/>
<defs>
<linearGradient id="paint0_linear_291_102" x1="30.2509" y1="60.5002" x2="30.2509" y2="0.000239311" gradientUnits="userSpaceOnUse">
<stop offset="0.28" stop-color="#05ABC1"/>
<stop offset="0.38" stop-color="#2CB7C7"/>
<stop offset="0.54" stop-color="#61C8D0"/>
<stop offset="0.68" stop-color="#8CD5D7"/>
<stop offset="0.81" stop-color="#AADEDC"/>
<stop offset="0.92" stop-color="#BCE4DF"/>
<stop offset="1" stop-color="#C3E6E0"/>
</linearGradient>
</defs>
</svg>
